<svg id="Capa_1" data-name="Capa 1" xmlns="http://www.w3.org/2000/svg" viewBox="0 0 163.5 50"><defs><style>.cls-1,.cls-2{fill:#e4428c;}.cls-2{fill-rule:evenodd;}</style></defs><title>liverpool_logo-rosa-01</title><path class="cls-1" d="M75.07,44.63a0.82,0.82,0,0,0,.87,1,2.87,2.87,0,0,0,1.66-.68,7.07,7.07,0,0,0,1.64-1.79l0.3,0.15a6.21,6.21,0,0,1-1.79,2,3.59,3.59,0,0,1-2.08.8,1.31,1.31,0,0,1-1-.38,1.48,1.48,0,0,1-.37-1.06A2.28,2.28,0,0,1,75,43a2.14,2.14,0,0,1,1.6-.68,1.13,1.13,0,0,1,.72.21,0.7,0.7,0,0,1,.27.58,1.29,1.29,0,0,1-.75,1.06A3.28,3.28,0,0,1,75.07,44.63Zm0-.32a2.35,2.35,0,0,0,1.26-.4,1,1,0,0,0,.52-0.83,0.36,0.36,0,0,0-.4-0.42,1.13,1.13,0,0,0-.88.48A2.31,2.31,0,0,0,75.09,44.31Z"/><path class="cls-1" d="M80.76,44.84a1.07,1.07,0,0,1-.33,1.37,1.59,1.59,0,0,1-1,.38,1,1,0,0,1-.6-0.17A0.5,0.5,0,0,1,78.53,46a0.72,0.72,0,0,1,.35-0.53A6.08,6.08,0,0,1,80,44.84l-0.28-.43a2.49,2.49,0,0,1-.51-1.22,1.15,1.15,0,0,1,.78-1,0.56,0.56,0,0,1,.47.44,0.94,0.94,0,0,1-.6.71L80.26,44l0.31,0.54a7.91,7.91,0,0,0,1-.65,7.56,7.56,0,0,0,.86-0.83l0.28,0.16A6.14,6.14,0,0,1,80.76,44.84Zm-0.59.3a1.73,1.73,0,0,0-1,.81c0,0.18.14,0.27,0.42,0.27a0.67,0.67,0,0,0,.5-0.2,0.7,0.7,0,0,0,.2-0.51A1,1,0,0,0,80.17,45.14Z"/><path class="cls-1" d="M85.08,45.81L84.83,47a3.57,3.57,0,0,0-.08.73,0.73,0.73,0,0,0,.09.36,2.07,2.07,0,0,1-.54.11A0.27,0.27,0,0,1,84,47.91a4.45,4.45,0,0,1,.11-0.79l1-4.88a2.68,2.68,0,0,1-.51.06,0.62,0.62,0,0,1-.45-0.14,1,1,0,0,1-.24-0.51,1.46,1.46,0,0,0,.78.17A3.48,3.48,0,0,0,86,41.58L85.7,42.87a1.83,1.83,0,0,1,1.23-.54,1.21,1.21,0,0,1,.93.4,1.42,1.42,0,0,1,.37,1,2.21,2.21,0,0,1-.68,1.61,2.23,2.23,0,0,1-1.62.68A1.61,1.61,0,0,1,85.08,45.81Zm0.11-.52a1.13,1.13,0,0,0,.87.39,1.35,1.35,0,0,0,1.05-.49,1.75,1.75,0,0,0,.43-1.2,1.29,1.29,0,0,0-.24-0.82,0.77,0.77,0,0,0-.64-0.32,1.65,1.65,0,0,0-1.06.52Z"/><path class="cls-1" d="M91.93,44a5.42,5.42,0,0,1-1.1,1.49,1.83,1.83,0,0,1-1.15.62,0.69,0.69,0,0,1-.59-0.31,1.4,1.4,0,0,1-.22-0.84,2.77,2.77,0,0,1,.66-1.83,2,2,0,0,1,1.53-.79,2.55,2.55,0,0,1,1.15.31,0.68,0.68,0,0,1,.74-0.31h0.14a2.13,2.13,0,0,0-.31.79l-0.06.28a5.45,5.45,0,0,0-.1,1.1c0,0.49.11,0.73,0.35,0.73a1.84,1.84,0,0,0,1-.6,9,9,0,0,0,1.29-1.53l0.27,0.18a7.51,7.51,0,0,1-1.48,1.83,2.37,2.37,0,0,1-1.43.73c-0.5,0-.75-0.4-0.75-1.2C91.91,44.49,91.91,44.26,91.93,44Zm0.17-.8a2.48,2.48,0,0,0-1.22-.46,1.09,1.09,0,0,0-.91.61,2.66,2.66,0,0,0-.38,1.45c0,0.45.15,0.67,0.46,0.67s1-.7,1.92-2.09Z"/><path class="cls-1" d="M95.58,46a1.11,1.11,0,0,1-.38.11,0.3,0.3,0,0,1-.36-0.3A5.55,5.55,0,0,1,95,45l0.17-.83a5.82,5.82,0,0,0,.16-1.1,0.46,0.46,0,0,0-.12-0.32,2,2,0,0,1,.6-0.12A0.25,0.25,0,0,1,96,43a6.12,6.12,0,0,1-.18,1l-0.2,1A8.34,8.34,0,0,1,97,43a1.86,1.86,0,0,1,1.21-.67,0.56,0.56,0,0,1,.34.1,0.31,0.31,0,0,1,.14.26,1.05,1.05,0,0,1-.53.62A0.41,0.41,0,0,0,97.76,43a1.84,1.84,0,0,0-1.14.89,8.47,8.47,0,0,0-.74,1.15,2.15,2.15,0,0,0-.31.85V46Z"/><path class="cls-1" d="M101.37,44.7a0.56,0.56,0,0,1,.1.29,1.06,1.06,0,0,1-.58.72,2,2,0,0,1-1.06.39,0.82,0.82,0,0,1-.69-0.36,1.52,1.52,0,0,1-.26-0.92A6.81,6.81,0,0,1,99.23,43l0.16-.56H98.8a1.47,1.47,0,0,0-.59.1,1.42,1.42,0,0,1,.34-0.44A0.84,0.84,0,0,1,99,42.06h0.53l0.07-.23a1.52,1.52,0,0,1,.39-0.7,1,1,0,0,1,.67-0.19h0.17a4.21,4.21,0,0,0-.57,1.12h1.85a1.78,1.78,0,0,0,.74-0.12,0.79,0.79,0,0,1-.23.45,1,1,0,0,1-.54.1h-2l-0.05.16a7.7,7.7,0,0,0-.42,2.07c0,0.51.2,0.77,0.58,0.77a1.21,1.21,0,0,0,.66-0.24A1.46,1.46,0,0,0,101.37,44.7Z"/><path class="cls-1" d="M102.7,44.63a0.82,0.82,0,0,0,.87,1,2.88,2.88,0,0,0,1.66-.68,7.11,7.11,0,0,0,1.64-1.79l0.3,0.15a6.19,6.19,0,0,1-1.79,2,3.57,3.57,0,0,1-2.08.8,1.31,1.31,0,0,1-1-.38,1.48,1.48,0,0,1-.37-1.06A2.28,2.28,0,0,1,102.6,43a2.14,2.14,0,0,1,1.6-.68,1.13,1.13,0,0,1,.72.21,0.7,0.7,0,0,1,.27.58,1.29,1.29,0,0,1-.75,1.06A3.28,3.28,0,0,1,102.7,44.63Zm0-.32a2.35,2.35,0,0,0,1.26-.4,1,1,0,0,0,.52-0.83,0.36,0.36,0,0,0-.4-0.42,1.13,1.13,0,0,0-.88.48A2.3,2.3,0,0,0,102.73,44.31Z"/><path class="cls-1" d="M111.82,44.06a6.2,6.2,0,0,1-1.14,1.48,1.7,1.7,0,0,1-1.07.55,0.69,0.69,0,0,1-.59-0.31,1.42,1.42,0,0,1-.22-0.83,2.8,2.8,0,0,1,.66-1.84,2,2,0,0,1,1.53-.79,2.52,2.52,0,0,1,1.14.32l0.38-1.79a2.82,2.82,0,0,1-.52.06,0.62,0.62,0,0,1-.45-0.14,1,1,0,0,1-.23-0.52,1.42,1.42,0,0,0,.78.17,3.53,3.53,0,0,0,1.25-.23l-0.77,3.64a5.4,5.4,0,0,0-.13,1c0,0.38.11,0.57,0.34,0.57a2.29,2.29,0,0,0,1.12-.75,8.63,8.63,0,0,0,1.31-1.56l0.28,0.17a7.84,7.84,0,0,1-1.55,1.94,2.6,2.6,0,0,1-1.49.86c-0.47,0-.71-0.36-0.71-1.08A5.64,5.64,0,0,1,111.82,44.06Zm0.19-.88a2.45,2.45,0,0,0-1.21-.46,1.08,1.08,0,0,0-.91.61,2.64,2.64,0,0,0-.39,1.44q0,0.67.47,0.67c0.33,0,1-.7,1.91-2.09Z"/><path class="cls-1" d="M115.34,44.63a0.82,0.82,0,0,0,.87,1,2.86,2.86,0,0,0,1.66-.68,7,7,0,0,0,1.64-1.79l0.3,0.15a6.27,6.27,0,0,1-1.78,2,3.6,3.6,0,0,1-2.08.8,1.31,1.31,0,0,1-1-.38,1.48,1.48,0,0,1-.36-1.06,2.29,2.29,0,0,1,.66-1.65,2.14,2.14,0,0,1,1.6-.68,1.13,1.13,0,0,1,.72.21,0.7,0.7,0,0,1,.27.58,1.28,1.28,0,0,1-.75,1.06A3.28,3.28,0,0,1,115.34,44.63Zm0-.32a2.34,2.34,0,0,0,1.25-.4,1,1,0,0,0,.52-0.83,0.36,0.36,0,0,0-.39-0.42,1.14,1.14,0,0,0-.88.48A2.27,2.27,0,0,0,115.37,44.31Z"/><path class="cls-1" d="M122.66,44.84q1.26-2.52,2.23-2.52c0.28,0,.42.19,0.42,0.58a7.25,7.25,0,0,1-.18,1.12l-0.21,1a8.81,8.81,0,0,1,1.28-2,1.78,1.78,0,0,1,1.15-.74,0.5,0.5,0,0,1,.53.59,6.69,6.69,0,0,1-.16,1l-0.11.52a3.66,3.66,0,0,0-.1.69c0,0.27.1,0.4,0.3,0.4q0.67,0,2.06-2.37l0.29,0.16c-1,1.87-1.9,2.81-2.65,2.81a0.73,0.73,0,0,1-.73-0.9,5,5,0,0,1,.14-1l0.1-.46a4.93,4.93,0,0,0,.1-0.58,0.13,0.13,0,0,0-.16-0.14,3.14,3.14,0,0,0-1.36,1.43,6.63,6.63,0,0,0-.89,1.48,0.34,0.34,0,0,0,0,.07l-0.17,0-0.16,0a0.28,0.28,0,0,1-.33-0.29,4.4,4.4,0,0,1,.11-0.54c0-.11,0-0.22.07-0.35l0.15-.7a7.11,7.11,0,0,0,.16-0.91c0-.15-0.06-0.22-0.17-0.22a2.3,2.3,0,0,0-1.12,1.29,5.79,5.79,0,0,0-.73,1.52,0.22,0.22,0,0,0,.05.13,0.9,0.9,0,0,1-.35.08,0.33,0.33,0,0,1-.36-0.37s0-.35.1-1l0.08-.7a5.4,5.4,0,0,0,0-.69,0.84,0.84,0,0,0-.17-0.58,2.12,2.12,0,0,1,.58-0.14,0.29,0.29,0,0,1,.31.34c0,0.08,0,.39-0.08.91Z"/><path class="cls-1" d="M133.47,43.29a9.09,9.09,0,0,1-1.6,2.06,2.28,2.28,0,0,1-1.45.75,0.85,0.85,0,0,1-.63-0.24,0.87,0.87,0,0,1-.24-0.64,2.66,2.66,0,0,1,.07-0.48l0.08-.37a6.17,6.17,0,0,0,.17-1.11,0.42,0.42,0,0,0-.12-0.31,3.88,3.88,0,0,1,.57-0.1c0.17,0,.26.11,0.26,0.34a3.94,3.94,0,0,1-.1.73l-0.14.65a4,4,0,0,0-.1.61,0.35,0.35,0,0,0,.37.41,2,2,0,0,0,1.17-.7,9.71,9.71,0,0,0,1.41-1.77Zm-3.11-1.67h0a1.9,1.9,0,0,0,.67-0.23,3,3,0,0,0,.69-0.44,1.63,1.63,0,0,1-.55.77,1.88,1.88,0,0,1-.8.47,0.14,0.14,0,0,1-.14-0.16A1,1,0,0,1,130.36,41.62Z"/><path class="cls-1" d="M136.17,46.1a2,2,0,0,0,.08-0.51,5.3,5.3,0,0,0-.37-1.81,4.23,4.23,0,0,0-.86-1.5,1.27,1.27,0,0,1,.55-0.15,1.25,1.25,0,0,1,.78,1,9,9,0,0,1,.57,2.32,8.15,8.15,0,0,0,1-1.52,3.85,3.85,0,0,0,.45-1.35,0.64,0.64,0,0,1,.52.45,2.86,2.86,0,0,1-.5,1,13.68,13.68,0,0,1-1.09,1.51,1.68,1.68,0,0,1-.48.44A1.8,1.8,0,0,1,136.17,46.1Z"/><path class="cls-1" d="M143.49,43.29a9.09,9.09,0,0,1-1.6,2.06,2.29,2.29,0,0,1-1.45.75,0.86,0.86,0,0,1-.63-0.24,0.87,0.87,0,0,1-.24-0.64,2.43,2.43,0,0,1,.07-0.48l0.08-.37a6.16,6.16,0,0,0,.17-1.11,0.42,0.42,0,0,0-.12-0.31,3.8,3.8,0,0,1,.57-0.1c0.17,0,.26.11,0.26,0.34a3.61,3.61,0,0,1-.1.73l-0.13.65a3.56,3.56,0,0,0-.1.61,0.35,0.35,0,0,0,.37.41,2,2,0,0,0,1.17-.7,9.61,9.61,0,0,0,1.41-1.77Zm-3.11-1.67h0a1.89,1.89,0,0,0,.68-0.23,2.9,2.9,0,0,0,.69-0.44,1.58,1.58,0,0,1-.54.77,1.87,1.87,0,0,1-.81.47,0.13,0.13,0,0,1-.14-0.16A1,1,0,0,1,140.37,41.62Z"/><path class="cls-1" d="M145.6,44.06a6.26,6.26,0,0,1-1.14,1.48,1.7,1.7,0,0,1-1.06.55,0.7,0.7,0,0,1-.6-0.31,1.4,1.4,0,0,1-.22-0.83,2.8,2.8,0,0,1,.66-1.84,2,2,0,0,1,1.53-.79,2.5,2.5,0,0,1,1.14.32l0.38-1.79a2.81,2.81,0,0,1-.51.06,0.62,0.62,0,0,1-.45-0.14,1.05,1.05,0,0,1-.24-0.52,1.43,1.43,0,0,0,.78.17,3.54,3.54,0,0,0,1.25-.23l-0.76,3.64a5,5,0,0,0-.13,1c0,0.38.11,0.57,0.34,0.57a2.26,2.26,0,0,0,1.12-.75A8.56,8.56,0,0,0,149,43.13l0.29,0.17a8,8,0,0,1-1.56,1.94,2.61,2.61,0,0,1-1.49.86c-0.47,0-.71-0.36-0.71-1.08A5.64,5.64,0,0,1,145.6,44.06Zm0.19-.88a2.44,2.44,0,0,0-1.21-.46,1.08,1.08,0,0,0-.91.61,2.66,2.66,0,0,0-.38,1.44q0,0.67.47,0.67t1.91-2.09Z"/><path class="cls-1" d="M151.41,44a5.42,5.42,0,0,1-1.1,1.49,1.83,1.83,0,0,1-1.15.62,0.69,0.69,0,0,1-.59-0.31,1.4,1.4,0,0,1-.22-0.84,2.77,2.77,0,0,1,.66-1.83,2,2,0,0,1,1.53-.79,2.55,2.55,0,0,1,1.15.31,0.68,0.68,0,0,1,.74-0.31h0.14a2.14,2.14,0,0,0-.31.79l-0.06.28a5.45,5.45,0,0,0-.1,1.1c0,0.49.11,0.73,0.35,0.73a1.84,1.84,0,0,0,1-.6,9,9,0,0,0,1.29-1.53l0.27,0.18a7.51,7.51,0,0,1-1.48,1.83,2.37,2.37,0,0,1-1.43.73c-0.5,0-.75-0.4-0.75-1.2C151.39,44.49,151.4,44.26,151.41,44Zm0.17-.8a2.48,2.48,0,0,0-1.22-.46,1.09,1.09,0,0,0-.91.61,2.66,2.66,0,0,0-.38,1.45c0,0.45.16,0.67,0.46,0.67s1-.7,1.92-2.09Z"/><path class="cls-2" d="M2.32,1.82H4.88V28s0,1.88,1.69,1.88H20.32v2.84h-15a3.1,3.1,0,0,1-3-3.38c0-3.34,0-27.51,0-27.51h0Z"/><path class="cls-2" d="M5.85,1.82H8.41V24.27A1.49,1.49,0,0,0,9.89,26H20.31v2.81h-13a1.62,1.62,0,0,1-1.5-1.67c0-1.1,0-25.32,0-25.32h0Z"/><path class="cls-2" d="M9.37,1.82h2.57v19A1.1,1.1,0,0,0,13,22.1h7.31v2.82H10.46a1.46,1.46,0,0,1-1.09-1.53V1.82h0Z"/><path class="cls-2" d="M12.89,1.82h2.57V17.14a0.91,0.91,0,0,0,1,1.09h3.9V21H14.39c-1.06,0-1.49-.32-1.49-1.4V1.82h0Z"/><path class="cls-2" d="M34.4,32.68H31.84V6.51s0-1.88-1.69-1.88H16.41V1.78h15a3.11,3.11,0,0,1,3,3.38c0,3.34,0,27.51,0,27.51h0Z"/><path class="cls-2" d="M30.86,32.68H28.31V10.23A1.5,1.5,0,0,0,26.83,8.5c-8.22,0-10.42,0-10.42,0V5.69h13a1.62,1.62,0,0,1,1.5,1.67c0,1.1,0,25.32,0,25.32h0Z"/><path class="cls-2" d="M27.35,32.68H24.78v-19a1.1,1.1,0,0,0-1.07-1.29H16.4V9.58h9.84a1.47,1.47,0,0,1,1.1,1.53c0,1.2,0,21.57,0,21.57h0Z"/><path class="cls-2" d="M23.82,32.68H21.25V17.35a0.91,0.91,0,0,0-1-1.09H16.4V13.46h5.93c1.06,0,1.49.32,1.49,1.4s0,17.81,0,17.81h0Z"/><polygon class="cls-2" points="60.4 8.19 63.01 8.19 63.01 11.14 60.4 11.14 60.4 8.19 60.4 8.19"/><polygon class="cls-2" points="60.4 14.62 63.01 14.62 63.01 32.71 60.4 32.71 60.4 14.62 60.4 14.62"/><polygon class="cls-2" points="153.23 8.16 155.86 8.16 155.86 32.71 153.23 32.71 153.23 8.16 153.23 8.16"/><polygon class="cls-2" points="77.64 14.62 72.36 29.18 67.08 14.62 64.09 14.62 70.65 32.71 74.07 32.71 80.63 14.62 77.64 14.62 77.64 14.62"/><path class="cls-2" d="M53,29.84a1.64,1.64,0,0,1-1.55-1.75V8.19H48.83V28.56a3.94,3.94,0,0,0,3.74,4.14h6.88V29.84H53Z"/><path class="cls-2" d="M102.71,17.53a1.64,1.64,0,0,0-1.55,1.75v13.5H98.54v-14a3.94,3.94,0,0,1,3.74-4.13H105v2.86h-2.32Z"/><path class="cls-2" d="M97.15,23.87V23.31c0-5.22-3.89-9.46-8.66-9.46s-8.65,4.24-8.65,9.46,3.88,9.46,8.65,9.46a8.79,8.79,0,0,0,8.41-7.22H94.37a6.28,6.28,0,0,1-5.87,4.56c-3.22,0-5.89-2.65-6.2-6.25H97.15ZM82.58,21.21a6.07,6.07,0,0,1,11.83,0H82.58Z"/><path class="cls-2" d="M143.19,13.75a8.61,8.61,0,0,0-7.44,4.54,8.37,8.37,0,0,0-14.88,0,8.62,8.62,0,0,0-7.44-4.54c-4.83,0-8.75,4.28-8.75,9.56V38.85h2.65V30.16a8.35,8.35,0,0,0,6.1,2.71,8.62,8.62,0,0,0,7.44-4.54,8.37,8.37,0,0,0,14.88,0,8.62,8.62,0,0,0,7.44,4.54c4.83,0,8.75-4.28,8.75-9.56s-3.91-9.56-8.75-9.56h0ZM113.42,30a6.44,6.44,0,0,1-6.13-6.7c0-3.7,2.75-6.7,6.13-6.7s6.13,3,6.13,6.7-2.75,6.7-6.13,6.7h0Zm14.88,0c-3.38,0-6.13-3-6.13-6.7s2.75-6.7,6.13-6.7a6.44,6.44,0,0,1,6.13,6.7,6.44,6.44,0,0,1-6.13,6.7h0Zm14.89,0c-3.38,0-6.13-3-6.13-6.7s2.75-6.7,6.13-6.7a6.44,6.44,0,0,1,6.13,6.7,6.44,6.44,0,0,1-6.13,6.7h0Z"/><path class="cls-2" d="M159.09,12.46A2.19,2.19,0,0,1,157,10.17a2.1,2.1,0,1,1,4.18,0,2.19,2.19,0,0,1-2.09,2.29h0Zm0-4.19a1.83,1.83,0,0,0-1.75,1.9,1.76,1.76,0,1,0,3.5,0,1.83,1.83,0,0,0-1.75-1.9h0ZM158.18,9h1a0.68,0.68,0,1,1,.1,1.36h0a1.23,1.23,0,0,1,.52.61l0.27,0.48h-0.44l-0.2-.38c-0.28-.56-0.39-0.66-0.67-0.66h-0.21v1h-0.36V9h0Zm0.89,1.08a0.39,0.39,0,0,0,.47-0.37,0.36,0.36,0,0,0-.4-0.36h-0.59v0.74h0.52Z"/><path class="cls-2" d="M157.13,42.54a1.13,1.13,0,1,1,1-1.13,1.08,1.08,0,0,1-1,1.13h0Zm0-2.07a0.94,0.94,0,1,0,.86.94,0.9,0.9,0,0,0-.86-0.94h0Zm-0.45.35h0.49a0.34,0.34,0,1,1,.05.67h0a0.61,0.61,0,0,1,.26.3L157.62,42H157.4l-0.1-.19c-0.14-.27-0.2-0.32-0.33-0.32h-0.11V42h-0.18V40.83h0Zm0.44,0.53a0.19,0.19,0,0,0,.23-0.19,0.18,0.18,0,0,0-.2-0.18h-0.29v0.36h0.26Z"/></svg>